<svg width="78" height="78" viewBox="0 0 78 78" fill="none" xmlns="http://www.w3.org/2000/svg">
<path d="M65.8125 32.5C65.8125 31.9665 65.7074 31.4382 65.5033 30.9454C65.2991 30.4525 64.9999 30.0046 64.6226 29.6274C64.2454 29.2501 63.7975 28.9509 63.3046 28.7467C62.8118 28.5426 62.2835 28.4375 61.75 28.4375C61.2165 28.4375 60.6882 28.5426 60.1953 28.7467C59.7025 28.9509 59.2546 29.2501 58.8774 29.6274C58.5001 30.0046 58.2009 30.4525 57.9967 30.9454C57.7926 31.4382 57.6875 31.9665 57.6875 32.5H65.8125ZM20.3125 32.5C20.3125 31.4226 19.8845 30.3892 19.1226 29.6274C18.3608 28.8655 17.3274 28.4375 16.25 28.4375C15.1726 28.4375 14.1392 28.8655 13.3774 29.6274C12.6155 30.3892 12.1875 31.4226 12.1875 32.5H20.3125ZM65.377 41.873C66.139 42.635 67.1724 43.063 68.25 43.063C69.3276 43.063 70.361 42.635 71.123 41.873C71.885 41.111 72.313 40.0776 72.313 39C72.313 37.9224 71.885 36.889 71.123 36.127L65.377 41.873ZM39 9.75L41.873 6.877C41.4957 6.49965 41.0479 6.20031 40.5549 5.99609C40.0619 5.79186 39.5336 5.68674 39 5.68674C38.4664 5.68674 37.9381 5.79186 37.4451 5.99609C36.9521 6.20031 36.5043 6.49965 36.127 6.877L39 9.75ZM6.877 36.127C6.11503 36.889 5.68696 37.9224 5.68696 39C5.68696 40.0776 6.11503 41.111 6.877 41.873C7.63897 42.635 8.67242 43.063 9.75 43.063C10.8276 43.063 11.861 42.635 12.623 41.873L6.877 36.127ZM22.75 72.3125H55.25V64.1875H22.75V72.3125ZM65.8125 61.75V32.5H57.6875V61.75H65.8125ZM20.3125 61.75V32.5H12.1875V61.75H20.3125ZM71.123 36.127L41.873 6.877L36.127 12.623L65.377 41.873L71.123 36.127ZM36.127 6.877L6.877 36.127L12.623 41.873L41.873 12.623L36.127 6.877ZM55.25 72.3125C58.0513 72.3125 60.738 71.1997 62.7188 69.2188C64.6997 67.238 65.8125 64.5513 65.8125 61.75H57.6875C57.6875 62.3965 57.4307 63.0165 56.9736 63.4736C56.5165 63.9307 55.8965 64.1875 55.25 64.1875V72.3125ZM22.75 64.1875C22.1035 64.1875 21.4835 63.9307 21.0264 63.4736C20.5693 63.0165 20.3125 62.3965 20.3125 61.75H12.1875C12.1875 64.5513 13.3003 67.238 15.2812 69.2188C17.262 71.1997 19.9487 72.3125 22.75 72.3125V64.1875Z" fill="white"/>
</svg>
