<svg width="56" height="56" viewBox="0 0 56 56" fill="none" xmlns="http://www.w3.org/2000/svg">
<path d="M28 49C32.1534 49 36.2135 47.7684 39.667 45.4609C43.1204 43.1534 45.812 39.8736 47.4015 36.0364C48.9909 32.1991 49.4068 27.9767 48.5965 23.9031C47.7862 19.8295 45.7861 16.0877 42.8492 13.1508C39.9123 10.2139 36.1705 8.2138 32.0969 7.40351C28.0233 6.59322 23.8009 7.00909 19.9636 8.59853C16.1264 10.188 12.8466 12.8796 10.5391 16.333C8.23163 19.7865 7 23.8466 7 28C7 31.472 7.84 34.7457 9.33333 37.6297L7 49L18.3703 46.6667C21.2543 48.16 24.5303 49 28 49Z" stroke="white" stroke-width="2.5" stroke-linecap="round" stroke-linejoin="round"/>
</svg>
